<?xml version="1.0" standalone="yes"?>

<svg version="1.1" viewBox="0.0 0.0 960.0 400.0" fill="none" stroke="none" stroke-linecap="square" stroke-miterlimit="10" clip-path="url(#p.0)" xmlns="http://www.w3.org/2000/svg" xmlns:xlink="http://www.w3.org/1999/xlink">
  <clipPath id="p.0">
    <path d="m0 0l960.0 0l0 720.0l-960.0 0l0 -720.0z" clip-rule="nonzero"></path>
  </clipPath><path fill="#cfe2f3" d="m299.35883 167.13412c-18.041992 -24.4664 -26.060669 -71.65161 -48.112 -83.88481c-22.05133 -12.2332 -68.15866 -20.971199 -84.196 10.485603c-16.037338 31.456802 -34.07933 143.30319 -12.028 178.25519c22.05133 34.952026 116.27066 31.456818 144.336 31.456818c28.065338 0 26.060669 -24.4664 24.056 -31.456818c-2.0046692 -6.990387 -36.083984 -6.990387 -36.083984 -10.485596c0 -3.4951782 30.069977 -5.242798 36.083984 -10.485596c6.0140076 -5.242798 -6.0140076 -17.475998 0 -20.971191c6.0140076 -3.4952087 40.093323 10.485596 36.084015 0c-4.0093384 -10.485611 -42.098022 -38.447205 -60.140015 -62.913605z" fill-rule="nonzero"></path><path stroke="#000000" stroke-width="2.0" stroke-linejoin="round" stroke-linecap="butt" d="m299.35883 167.13412c-18.041992 -24.4664 -26.060669 -71.65161 -48.112 -83.88481c-22.05133 -12.2332 -68.15866 -20.971199 -84.196 10.485603c-16.037338 31.456802 -34.07933 143.30319 -12.028 178.25519c22.05133 34.952026 116.27066 31.456818 144.336 31.456818c28.065338 0 26.060669 -24.4664 24.056 -31.456818c-2.0046692 -6.990387 -36.083984 -6.990387 -36.083984 -10.485596c0 -3.4951782 30.069977 -5.242798 36.083984 -10.485596c6.0140076 -5.242798 -6.0140076 -17.475998 0 -20.971191c6.0140076 -3.4952087 40.093323 10.485596 36.084015 0c-4.0093384 -10.485611 -42.098022 -38.447205 -60.140015 -62.913605z" fill-rule="nonzero"></path><path fill="#ff0000" d="m155.01894 181.48412l21.472519 -38.766037l21.472504 38.766037z" fill-rule="nonzero"></path><path stroke="#000000" stroke-width="2.0" stroke-linejoin="round" stroke-linecap="butt" d="m155.01894 181.48412l21.472519 -38.766037l21.472504 38.766037z" fill-rule="nonzero"></path><path fill="#1155cc" d="m235.20667 160.34451l0 0c0 -13.626831 8.977524 -24.673553 20.051865 -24.673553l0 0c5.3181 0 10.41835 2.5995178 14.178818 7.226715c3.7604675 4.627182 5.873047 10.903 5.873047 17.446838l0 0c0 13.626831 -8.977509 24.673553 -20.051865 24.673553l0 0c-11.074341 0 -20.051865 -11.046722 -20.051865 -24.673553z" fill-rule="nonzero"></path><path stroke="#000000" stroke-width="2.0" stroke-linejoin="round" stroke-linecap="butt" d="m235.20667 160.34451l0 0c0 -13.626831 8.977524 -24.673553 20.051865 -24.673553l0 0c5.3181 0 10.41835 2.5995178 14.178818 7.226715c3.7604675 4.627182 5.873047 10.903 5.873047 17.446838l0 0c0 13.626831 -8.977509 24.673553 -20.051865 24.673553l0 0c-11.074341 0 -20.051865 -11.046722 -20.051865 -24.673553z" fill-rule="nonzero"></path><path fill="#38761d" d="m200.1344 222.87895l34.36618 0l0 38.75911l-34.36618 0z" fill-rule="nonzero"></path><path stroke="#000000" stroke-width="2.0" stroke-linejoin="round" stroke-linecap="butt" d="m200.1344 222.87895l34.36618 0l0 38.75911l-34.36618 0z" fill-rule="nonzero"></path><path fill="#000000" d="m245.60503 189.11905l-13.382629 27.076065l1.3614502 1.0144043l-4.2274933 1.0152893l-1.2183228 -5.072937l1.3614502 1.0144196l13.382645 -27.07605z" fill-rule="nonzero"></path><path stroke="#000000" stroke-width="2.0" stroke-linejoin="round" stroke-linecap="butt" d="m245.60503 189.11905l-13.382629 27.076065l1.3614502 1.0144043l-4.2274933 1.0152893l-1.2183228 -5.072937l1.3614502 1.0144196l13.382645 -27.07605z" fill-rule="nonzero"></path><path fill="#000000" d="m202.42203 162.40028l24.732574 0.026931763l0 -1.9585876l3.9171753 3.9214478l-3.9171753 3.912918l0 -1.9585876l-24.732574 -0.026947021z" fill-rule="nonzero"></path><path stroke="#000000" stroke-width="2.0" stroke-linejoin="round" stroke-linecap="butt" d="m202.42203 162.40028l24.732574 0.026931763l0 -1.9585876l3.9171753 3.9214478l-3.9171753 3.912918l0 -1.9585876l-24.732574 -0.026947021z" fill-rule="nonzero"></path><path fill="#000000" d="m197.62465 217.83553l-13.893158 -26.61383l-1.3392639 1.0690308l1.092514 -5.1762085l4.2645264 0.90008545l-1.3392639 1.0690308l13.893158 26.613815z" fill-rule="nonzero"></path><path stroke="#000000" stroke-width="2.0" stroke-linejoin="round" stroke-linecap="butt" d="m197.62465 217.83553l-13.893158 -26.61383l-1.3392639 1.0690308l1.092514 -5.1762085l4.2645264 0.90008545l-1.3392639 1.0690308l13.893158 26.613815z" fill-rule="nonzero"></path><path fill="#000000" d="m340.86115 258.1319l0.27233887 1.1390991q-0.5516968 0.16662598 -0.9879761 0.19924927q-0.71676636 0.053588867 -1.1391907 -0.14984131q-0.40682983 -0.20458984 -0.58917236 -0.55133057q-0.1835022 -0.3623352 -0.2711792 -1.5466003l-0.32995605 -4.456543l-0.96606445 0.072250366l-0.07614136 -1.0284271l0.96606445 -0.072250366l-0.14190674 -1.9166412l1.25 -0.8925781l0.20074463 2.711319l1.3244324 -0.0990448l0.07614136 1.0284271l-1.3244324 0.09906006l0.33572388 4.5344696q0.041534424 0.5609436 0.11654663 0.72769165q0.08944702 0.1499939 0.25216675 0.23184204q0.16275024 0.081848145 0.4432068 0.06088257q0.23373413 -0.017486572 0.58865356 -0.091033936zm1.2489929 1.0817261l-0.5745239 -7.76001l1.1842041 -0.08856201l0.087677 1.1842499q0.39071655 -0.85964966 0.7606201 -1.1536865q0.36993408 -0.29403687 0.82180786 -0.32783508q0.6699829 -0.050109863 1.3867188 0.31933594l-0.36187744 1.2492218q-0.5037842 -0.24435425 -0.9868164 -0.20822144q-0.4362793 0.03262329 -0.75946045 0.3231659q-0.3243103 0.27494812 -0.42996216 0.7529144q-0.16619873 0.71751404 -0.10507202 1.5433807l0.30111694 4.066986l-1.3244324 0.09906006zm4.21756 -9.559921l-0.11190796 -1.5114899l1.3088379 -0.09788513l0.11190796 1.5114899l-1.3088379 0.09788513zm0.68066406 9.193588l-0.5745239 -7.76001l1.3088379 -0.09790039l0.5745239 7.76001l-1.3088379 0.09790039zm8.225098 -1.5709534q-0.6873169 0.6624756 -1.3377075 0.97750854q-0.6515503 0.29940796 -1.4306335 0.35769653q-1.2776794 0.09555054 -2.0093994 -0.47647095q-0.7317505 -0.5720215 -0.8032837 -1.5381165q-0.042663574 -0.5765686 0.17202759 -1.0626678q0.23025513 -0.48728943 0.630188 -0.7992401q0.3988037 -0.32751465 0.9181824 -0.50738525q0.36587524 -0.13703918 1.153595 -0.28997803q1.57547 -0.30584717 2.303772 -0.62667847q-0.0040283203 -0.2660675 -0.009796143 -0.34397888q-0.05999756 -0.8102875 -0.4581604 -1.1095428q-0.5465088 -0.39785767 -1.5281372 -0.32443237q-0.9348755 0.06991577 -1.3625183 0.43093872q-0.413208 0.34428406 -0.55462646 1.1852875l-1.3059692 -0.07467651q0.11026001 -0.8386841 0.4784546 -1.3676147q0.36706543 -0.54452515 1.1109314 -0.8665161q0.7427368 -0.33758545 1.7399597 -0.4121704q0.9971924 -0.07458496 1.6221924 0.113708496q0.64056396 0.18711853 0.96313477 0.52337646q0.32144165 0.32066345 0.47088623 0.8578949q0.08770752 0.33815002 0.15231323 1.2107544l0.12921143 1.745224q0.13613892 1.8387299 0.2498169 2.3159332q0.12924194 0.47607422 0.4119873 0.9093323l-1.3711548 0.10253906q-0.23254395 -0.38998413 -0.3352661 -0.9307251zm-0.32711792 -2.936905q-0.6948242 0.3496704 -2.1133118 0.65945435q-0.8010254 0.18525696 -1.1334229 0.35113525q-0.3168335 0.16471863 -0.48303223 0.45918274q-0.15063477 0.29330444 -0.12524414 0.6361084q0.039215088 0.5298157 0.45529175 0.8590698q0.43048096 0.3125 1.1939697 0.2554016q0.7635193 -0.05709839 1.3313904 -0.42861938q0.5667114 -0.38708496 0.8044739 -0.98461914q0.17025757 -0.45144653 0.105651855 -1.3240509l-0.0357666 -0.48306274zm3.461914 3.658249l-0.5745239 -7.76001l1.1842041 -0.08856201l0.08190918 1.1063385q0.7623596 -1.3418427 2.382843 -1.4630432q0.7011719 -0.052444458 1.2961426 0.15376282q0.6105652 0.20503235 0.93774414 0.60362244q0.3260498 0.3829956 0.47665405 0.9358063q0.10443115 0.35256958 0.17251587 1.2719269l0.35302734 4.7682037l-1.3244324 0.09906006l-0.34957886 -4.721466q-0.05883789 -0.79470825 -0.24346924 -1.1726074q-0.17022705 -0.39465332 -0.5770874 -0.5992584q-0.4079895 -0.22018433 -0.93777466 -0.18055725q-0.84140015 0.062927246 -1.4098511 0.63816833q-0.5684509 0.57525635 -0.45770264 2.071167l0.31381226 4.238388l-1.3244324 0.09906006zm7.941986 0.048431396l1.2915344 0.091430664q0.12173462 0.5863037 0.500885 0.83999634q0.5251465 0.32107544 1.3665466 0.2581482q0.9193115 -0.0687561 1.3902283 -0.480011q0.47207642 -0.39569092 0.5950012 -1.0629578q0.06350708 -0.4121399 -0.031097412 -1.6898804q-0.7819824 1.0769348 -2.0752563 1.1736755q-1.6048889 0.120025635 -2.5628357 -0.9678345q-0.95791626 -1.0878143 -1.0779114 -2.7083893q-0.08190918 -1.1063385 0.2539978 -2.071579q0.33587646 -0.9652405 1.0457153 -1.5354004q0.72543335 -0.5713196 1.7693787 -0.6493988q1.3711853 -0.10253906 2.3412476 0.9373779l-0.069244385 -0.9349365l1.2153625 -0.09089661l0.49609375 6.700409q0.13497925 1.8231201 -0.18359375 2.59906q-0.31744385 0.7915039 -1.079773 1.2872314q-0.7623596 0.49575806 -1.9309692 0.5831299q-1.3867493 0.10372925 -2.2898865 -0.45547485q-0.9031372 -0.5592041 -0.9654236 -1.8237zm0.74575806 -4.740692q0.11306763 1.5270691 0.7570801 2.1839905q0.6595764 0.6557617 1.5788879 0.5870056q0.90374756 -0.067596436 1.4606628 -0.7986603q0.5713196 -0.747818 0.4605713 -2.2437286q-0.10498047 -1.4179993 -0.796875 -2.0870056q-0.67749023 -0.6857605 -1.5656433 -0.619339q-0.8881531 0.06643677 -1.442749 0.82865906q-0.5557556 0.7466583 -0.4519348 2.1490784zm7.537903 3.4787292l-0.792572 -10.705063l1.3244324 -0.09906006l0.792572 10.705093l-1.3244324 0.09902954zm8.406952 -3.135727l1.3671265 0.05444336q-0.22280884 1.2231445 -1.0469055 1.9428711q-0.8240967 0.7197113 -2.1796875 0.8210907q-1.6983948 0.12701416 -2.7729187 -0.8424072q-1.0744934 -0.96943665 -1.2152405 -2.8704834q-0.14422607 -1.9477997 0.78897095 -3.0987244q0.93203735 -1.1665192 2.5369263 -1.2865448q1.5581665 -0.11653137 2.6182556 0.8696594q1.0600586 0.98617554 1.2019653 2.9028015q0.009246826 0.12466431 0.026550293 0.35839844l-5.7963257 0.4335022q0.17251587 1.2719269 0.8621216 1.9097748q0.7040405 0.62109375 1.685669 0.5476837q0.71673584 -0.053604126 1.2032471 -0.46603394q0.48535156 -0.4280243 0.72024536 -1.2760315zm-4.474121 -1.8119812l4.3316345 -0.32395935q-0.16616821 -0.9747009 -0.60702515 -1.4274597q-0.6798096 -0.71691895 -1.6770325 -0.642334q-0.919281 0.0687561 -1.4975586 0.7230835q-0.5626831 0.65315247 -0.5500183 1.6706696zm7.81662 4.068985l-0.11074829 -1.4959106l1.4958191 -0.11187744l0.11074829 1.4959106q0.061157227 0.8258667 -0.19796753 1.3466492q-0.24240112 0.53518677 -0.86047363 0.86346436l-0.39990234 -0.5341797q0.39126587 -0.21728516 0.56729126 -0.5908203q0.17718506 -0.3579712 0.14315796 -1.0291748l-0.7479248 0.05593872zm12.772095 -1.9110107q-0.6873474 0.6624756 -1.337738 0.9774933q-0.6515503 0.29942322 -1.430603 0.35769653q-1.2776794 0.09555054 -2.00943 -0.47647095q-0.73172 -0.5720215 -0.8032532 -1.5381165q-0.04269409 -0.57655334 0.17199707 -1.0626678q0.23028564 -0.48728943 0.6302185 -0.79922485q0.3987732 -0.3275299 0.91815186 -0.5074005q0.36590576 -0.13703918 1.1536255 -0.28996277q1.57547 -0.30586243 2.303772 -0.6266937q-0.0040283203 -0.2660675 -0.009796143 -0.34397888q-0.05999756 -0.8102875 -0.45819092 -1.1095428q-0.5464783 -0.3978424 -1.5281067 -0.32443237q-0.934906 0.06991577 -1.3625488 0.43093872q-0.413208 0.34428406 -0.55459595 1.1853027l-1.3059692 -0.07469177q0.11026001 -0.8386841 0.4784546 -1.3676147q0.3670349 -0.5445099 1.1109314 -0.8665161q0.7427063 -0.33758545 1.7399292 -0.4121704q0.9972229 -0.07458496 1.6221924 0.113708496q0.64056396 0.18711853 0.9631653 0.52337646q0.32141113 0.32066345 0.47088623 0.8578949q0.08770752 0.33815002 0.15231323 1.2107544l0.12921143 1.745224q0.1361084 1.8387299 0.24978638 2.3159485q0.12927246 0.47605896 0.41201782 0.90930176l-1.3711548 0.10255432q-0.23257446 -0.3899994 -0.3352661 -0.93070984zm-0.32711792 -2.936905q-0.6948242 0.3496704 -2.1133423 0.6594391q-0.8009949 0.18525696 -1.1333923 0.35113525q-0.3168335 0.16471863 -0.48306274 0.45918274q-0.15063477 0.29330444 -0.12524414 0.63612366q0.039215088 0.5298004 0.45529175 0.85905457q0.43051147 0.31251526 1.1940002 0.25541687q0.76348877 -0.057113647 1.3313599 -0.42861938q0.5667114 -0.38710022 0.8045044 -0.98461914q0.17025757 -0.4514618 0.105651855 -1.3240662l-0.0357666 -0.4830475zm3.4463196 3.6594086l-0.5745239 -7.760025l1.1842041 -0.08856201l0.087677 1.1842651q0.39071655 -0.8596649 0.7606201 -1.1537018q0.36993408 -0.2940216 0.82180786 -0.32781982q0.6699829 -0.050109863 1.3867188 0.31933594l-0.36187744 1.2492218q-0.5037842 -0.24435425 -0.9868164 -0.2082367q-0.4362793 0.03262329 -0.75946045 0.3231659q-0.3243103 0.27496338 -0.42993164 0.7529144q-0.16622925 0.7175293 -0.10510254 1.5433807l0.30111694 4.0670013l-1.3244324 0.09906006zm4.8670654 -0.36401367l-0.5745239 -7.76001l1.1841736 -0.08856201l0.087677 1.1842499q0.39071655 -0.85964966 0.76065063 -1.1536865q0.36993408 -0.29403687 0.82177734 -0.32783508q0.6700134 -0.050109863 1.3867493 0.31933594l-0.36187744 1.2492218q-0.5037842 -0.24435425 -0.9868164 -0.20822144q-0.4362793 0.03262329 -0.75946045 0.3231659q-0.32434082 0.27494812 -0.42996216 0.7529144q-0.16622925 0.71751404 -0.10507202 1.5433807l0.30111694 4.066986l-1.3244324 0.09906006zm4.112335 -4.2090454q-0.1592102 -2.1503754 0.96328735 -3.2841187q0.93374634 -0.9316101 2.3672485 -1.0388184q1.6048889 -0.12004089 2.6949768 0.8482361q1.0900879 0.9682617 1.2273865 2.8225708q0.11074829 1.4959106 -0.27764893 2.386734q-0.37283325 0.88964844 -1.2096252 1.437973q-0.8223877 0.5315552 -1.8351746 0.6072998q-1.6204834 0.12120056 -2.7105713 -0.8470764q-1.0745239 -0.96943665 -1.2198792 -2.9328003zm1.3555908 -0.10139465q0.11074829 1.4959106 0.80496216 2.1960754q0.7086487 0.68344116 1.6902771 0.61001587q0.98165894 -0.073410034 1.5806885 -0.87031555q0.59906006 -0.79689026 0.48599243 -2.3239594q-0.10614014 -1.4335785 -0.8147888 -2.1170044q-0.70980835 -0.6990051 -1.6914368 -0.6255951q-0.9816284 0.073410034 -1.5818176 0.8547363q-0.58462524 0.7801361 -0.47387695 2.2760468zm8.976593 3.230133l-2.9429016 -7.5828857l1.3555908 -0.101379395l1.5632019 4.3956604l0.5897217 1.6167603q0.021942139 -0.12698364 0.28744507 -1.61969l0.8940735 -4.6421204l1.3399963 -0.10021973l1.5020142 4.415909l0.4991455 1.4511871l0.325531 -1.5285339l1.0077515 -4.5879364l1.2776794 -0.095565796l-1.8561707 7.941818l-1.3555908 0.101379395l-1.590332 -4.550308l-0.394104 -1.3023682l-1.1318665 6.085739l-1.3711853 0.10255432zm9.464111 -0.7078247l-0.11074829 -1.4958954l1.4958191 -0.11187744l0.11074829 1.4959106q0.061157227 0.8258667 -0.19799805 1.3466339q-0.2423706 0.535202 -0.86047363 0.86346436l-0.39990234 -0.5341644q0.3912964 -0.21728516 0.5673218 -0.5908356q0.17715454 -0.35795593 0.14312744 -1.0291595l-0.7478943 0.055923462zm12.632477 -3.796463l1.3048096 0.05909729q-0.10333252 1.3552246 -0.93496704 2.1851807q-0.8171692 0.81321716 -2.0792847 0.90760803q-1.5892944 0.11886597 -2.6315002 -0.8373108q-1.043335 -0.97177124 -1.187561 -2.919571q-0.093444824 -1.2621613 0.24246216 -2.2274017q0.35031128 -0.9819946 1.1571045 -1.5123901q0.8223572 -0.53157043 1.8195801 -0.6061554q1.2621155 -0.09439087 2.1196594 0.48388672q0.8575134 0.57829285 1.1622009 1.7306519l-1.2626953 0.29812622q-0.24465942 -0.7651367 -0.7409363 -1.1197357q-0.48187256 -0.3713379 -1.1362915 -0.32240295q-0.9972229 0.07458496 -1.5674133 0.8379822q-0.5701904 0.7634125 -0.45596313 2.3060608q0.115356445 1.5582275 0.76052856 2.2307434q0.65960693 0.65574646 1.6256409 0.5834961q0.77908325 -0.058258057 1.258667 -0.5641937q0.47842407 -0.52149963 0.5459595 -1.5136719zm1.7886353 -6.526581l-0.11190796 -1.5114899l1.3088379 -0.09788513l0.11190796 1.5114899l-1.3088379 0.09788513zm0.68066406 9.193588l-0.57455444 -7.76001l1.3088684 -0.09788513l0.5745239 7.76001l-1.3088379 0.09788513zm3.2159119 -0.24052429l-0.5745239 -7.76001l1.1841736 -0.08856201l0.087677 1.1842499q0.39071655 -0.85964966 0.76065063 -1.1536865q0.36993408 -0.29403687 0.82177734 -0.32783508q0.6700134 -0.050094604 1.3867493 0.3193512l-0.36187744 1.2492065q-0.5037842 -0.24435425 -0.9868164 -0.20822144q-0.4362793 0.03262329 -0.75946045 0.3231659q-0.32434082 0.27494812 -0.42996216 0.7529144q-0.16622925 0.71751404 -0.10507202 1.5433807l0.30111694 4.0670013l-1.3244324 0.0990448zm9.736633 -3.579895l1.3048096 0.05909729q-0.10333252 1.3552399 -0.93496704 2.185196q-0.8171692 0.81321716 -2.0792847 0.90760803q-1.5892944 0.11886597 -2.6315002 -0.83732605q-1.043335 -0.971756 -1.187561 -2.9195557q-0.093444824 -1.2621765 0.24246216 -2.227417q0.35031128 -0.98197937 1.1571045 -1.5123749q0.8223877 -0.53157043 1.8195801 -0.6061554q1.2621155 -0.09439087 2.1196594 0.48388672q0.8575134 0.5782776 1.1622009 1.7306519l-1.2626953 0.29812622q-0.24465942 -0.7651367 -0.7409363 -1.1197357q-0.48187256 -0.37135315 -1.1362915 -0.32240295q-0.9972229 0.07458496 -1.5674133 0.8379822q-0.5701904 0.7633972 -0.45596313 2.3060608q0.115356445 1.5582275 0.76052856 2.2307281q0.65960693 0.6557617 1.6256409 0.58351135q0.77908325 -0.058258057 1.258667 -0.5641937q0.47842407 -0.52149963 0.5459595 -1.5136871zm2.4225464 2.670517l-0.792572 -10.705078l1.3244324 -0.09906006l0.792572 10.705078l-1.3244324 0.09906006zm8.406952 -3.1357422l1.3671265 0.05444336q-0.22280884 1.2231445 -1.0469055 1.9428711q-0.8241272 0.7197113 -2.179718 0.8210907q-1.6983643 0.12702942 -2.7728882 -0.8424072q-1.0744934 -0.96943665 -1.2152405 -2.8704834q-0.14422607 -1.9477997 0.78897095 -3.0987244q0.93203735 -1.1665192 2.5369263 -1.2865448q1.5581665 -0.11653137 2.618225 0.86964417q1.0600891 0.9861908 1.2019958 2.9028168q0.009246826 0.12466431 0.026550293 0.35839844l-5.7963257 0.4335022q0.17251587 1.2719269 0.8621216 1.9097748q0.70401 0.62109375 1.685669 0.5476837q0.71673584 -0.053604126 1.2032471 -0.46603394q0.48532104 -0.4280243 0.72024536 -1.2760315zm-4.474121 -1.8119812l4.3316345 -0.32395935q-0.16616821 -0.9747009 -0.60705566 -1.4274597q-0.67977905 -0.71691895 -1.677002 -0.642334q-0.9193115 0.0687561 -1.4975586 0.7230835q-0.5626831 0.65315247 -0.5500183 1.6706696zm7.81662 4.068985l-0.11074829 -1.4959106l1.4958191 -0.11187744l0.11074829 1.4959106q0.061157227 0.8258667 -0.19799805 1.3466492q-0.2423706 0.53518677 -0.8604431 0.8634491l-0.39993286 -0.5341644q0.3912964 -0.21728516 0.5673218 -0.5908356q0.17715454 -0.35795593 0.14312744 -1.0291595l-0.7478943 0.05593872zm12.772095 -1.9110107q-0.6873474 0.6624756 -1.337738 0.9774933q-0.6515503 0.29942322 -1.4306335 0.35768127q-1.2776794 0.095565796 -2.0093994 -0.4764557q-0.7317505 -0.5720215 -0.8032532 -1.5381317q-0.04269409 -0.5765381 0.17199707 -1.0626526q0.23028564 -0.48728943 0.6302185 -0.79922485q0.3987732 -0.3275299 0.91815186 -0.5074005q0.36587524 -0.13703918 1.1536255 -0.28996277q1.57547 -0.30586243 2.303772 -0.6266937q-0.004058838 -0.2660675 -0.00982666 -0.34397888q-0.05996704 -0.8102875 -0.4581604 -1.1095428q-0.5464783 -0.3978424 -1.5281372 -0.32443237q-0.9348755 0.06991577 -1.3625183 0.43093872q-0.413208 0.34428406 -0.55462646 1.1853027l-1.3059387 -0.07469177q0.11026001 -0.8386841 0.4784546 -1.3676147q0.3670349 -0.54452515 1.1109314 -0.8665161q0.7427063 -0.33758545 1.7399292 -0.4121704q0.9972229 -0.07458496 1.6221924 0.113708496q0.64056396 0.18711853 0.9631653 0.52337646q0.32141113 0.32066345 0.4708557 0.8578949q0.08770752 0.33815002 0.15231323 1.2107544l0.12921143 1.745224q0.13613892 1.8387299 0.2498169 2.3159485q0.12924194 0.47605896 0.41201782 0.90930176l-1.3711853 0.10255432q-0.23254395 -0.3899994 -0.3352356 -0.93070984zm-0.32711792 -2.9369202q-0.69485474 0.3496704 -2.1133423 0.65945435q-0.8009949 0.18525696 -1.1334229 0.35113525q-0.3168335 0.16471863 -0.48303223 0.45918274q-0.15063477 0.29330444 -0.12524414 0.6361084q0.039215088 0.5298004 0.45529175 0.8590698q0.43051147 0.31251526 1.1940002 0.2554016q0.76348877 -0.05709839 1.3313599 -0.42860413q0.5667114 -0.38710022 0.8045044 -0.98461914q0.17025757 -0.4514618 0.105651855 -1.3240662l-0.0357666 -0.48306274zm3.4463196 3.6594086l-0.5745239 -7.76001l1.1841736 -0.08856201l0.08770752 1.1842651q0.39071655 -0.8596649 0.7606201 -1.1537018q0.36993408 -0.29403687 0.82180786 -0.32781982q0.6699829 -0.050109863 1.3867188 0.31933594l-0.36187744 1.2492218q-0.5037842 -0.2443695 -0.9868164 -0.2082367q-0.4362793 0.03262329 -0.75946045 0.3231659q-0.32434082 0.27494812 -0.42996216 0.7529144q-0.16622925 0.71751404 -0.10507202 1.5433807l0.30111694 4.0670013l-1.3244324 0.0990448zm4.8670654 -0.3639984l-0.57455444 -7.76001l1.1842041 -0.08857727l0.087677 1.1842651q0.39071655 -0.8596649 0.76065063 -1.1536865q0.36993408 -0.29403687 0.82177734 -0.32783508q0.6700134 -0.050109863 1.3867493 0.31933594l-0.36187744 1.2492218q-0.5037842 -0.24435425 -0.9868164 -0.2082367q-0.4362793 0.03263855 -0.75946045 0.3231659q-0.32434082 0.27496338 -0.42996216 0.7529144q-0.16622925 0.7175293 -0.10507202 1.543396l0.30108643 4.066986l-1.3244019 0.09906006zm4.112335 -4.2090607q-0.1592102 -2.15036 0.96325684 -3.2841034q0.93377686 -0.9316101 2.367279 -1.0388336q1.6048889 -0.120025635 2.6949768 0.84825134q1.0900879 0.9682617 1.2273865 2.8225708q0.11074829 1.4958954 -0.27767944 2.386734q-0.37280273 0.88964844 -1.2096252 1.4379578q-0.8223572 0.53157043 -1.835144 0.60731506q-1.6204834 0.12120056 -2.7105713 -0.8470764q-1.0745239 -0.96943665 -1.2198792 -2.9328156zm1.3555908 -0.101379395q0.11074829 1.4959106 0.80496216 2.1960754q0.7086487 0.6834259 1.6902771 0.61001587q0.9816284 -0.073410034 1.5806885 -0.87031555q0.59902954 -0.79689026 0.48599243 -2.3239594q-0.10614014 -1.4335785 -0.8147888 -2.1170044q-0.70980835 -0.6990204 -1.6914368 -0.6255951q-0.9816284 0.073410034 -1.5818481 0.85472107q-0.5845947 0.78015137 -0.47384644 2.276062zm8.976593 3.230133l-2.9429016 -7.5828857l1.3555908 -0.101379395l1.5631714 4.3956604l0.5897522 1.6167603q0.021942139 -0.12698364 0.28744507 -1.61969l0.89404297 -4.6421204l1.3400269 -0.10021973l1.5020142 4.415909l0.4991455 1.4511871l0.3255005 -1.5285339l1.0077515 -4.5879364l1.27771 -0.095565796l-1.8562012 7.941818l-1.3555908 0.101379395l-1.5903015 -4.5503235l-0.394104 -1.3023529l-1.1318665 6.085739l-1.3711853 0.10255432zm9.464081 -0.7078247l-0.11071777 -1.4958954l1.4957886 -0.11187744l0.11077881 1.4959106q0.061157227 0.82585144 -0.19799805 1.3466339q-0.2423706 0.535202 -0.86047363 0.8634491l-0.39990234 -0.53414917q0.3912964 -0.21728516 0.5673218 -0.5908356q0.17718506 -0.35795593 0.14312744 -1.0291748l-0.7479248 0.05593872zm7.092407 -2.8650665l1.2782593 -0.2992859q0.16674805 0.7709503 0.6965332 1.1543884q0.5297241 0.3834381 1.4334717 0.31584167q0.90374756 -0.06758118 1.3134766 -0.45861816q0.40856934 -0.40660095 0.37164307 -0.90522766q-0.033447266 -0.45188904 -0.44140625 -0.67207336q-0.27874756 -0.16719055 -1.3734741 -0.3516693q-1.475647 -0.25003052 -2.0561523 -0.47297668q-0.5661621 -0.23968506 -0.89678955 -0.6850128q-0.31506348 -0.4465027 -0.3577881 -1.023056q-0.038024902 -0.51420593 0.16339111 -0.9680023q0.20025635 -0.46936035 0.5845947 -0.7801361q0.29431152 -0.25704956 0.81256104 -0.4524994q0.5182495 -0.19543457 1.1259155 -0.2408905q0.90374756 -0.06758118 1.6088867 0.14604187q0.7208252 0.21244812 1.0814819 0.6398773q0.35949707 0.41183472 0.54071045 1.1660461l-1.2650146 0.2669525q-0.13848877 -0.600708 -0.58343506 -0.8964844q-0.44604492 -0.31134033 -1.2095337 -0.25424194q-0.90374756 0.067596436 -1.2702026 0.40837097q-0.36761475 0.3251953 -0.33764648 0.7303467q0.018493652 0.24931335 0.18927002 0.44023132q0.18756104 0.20533752 0.5407715 0.31993103q0.19158936 0.048355103 1.1772461 0.24099731q1.4299927 0.269104 1.9926758 0.4620514q0.5782471 0.19177246 0.9244995 0.63594055q0.34503174 0.42858887 0.39465332 1.0986176q0.048461914 0.6544647 -0.29840088 1.2601471q-0.3312378 0.60450745 -1.0393677 0.98651123q-0.69366455 0.36524963 -1.6129761 0.43400574q-1.5114136 0.11303711 -2.3521729 -0.45082092q-0.82525635 -0.56503296 -1.1356812 -1.7953033zm13.169067 4.3424225l-0.28149414 -3.8020935q-0.2793579 0.45961 -0.81951904 0.78204346q-0.52453613 0.3212738 -1.1478271 0.3678894q-1.3711548 0.10255432 -2.4491577 -0.91363525q-1.0791016 -1.0317688 -1.222168 -2.963974q-0.08654785 -1.1686859 0.25054932 -2.118332q0.33587646 -0.9652405 1.0647583 -1.4898224q0.74328613 -0.5413208 1.6625977 -0.61006165q1.4335327 -0.10722351 2.3493042 1.0464478l-0.07727051 -1.0440216l1.1842041 -0.08856201l0.79486084 10.736237l-1.3088379 0.09788513zm-4.5755615 -6.5676575q0.11077881 1.4958954 0.7894287 2.197235q0.69421387 0.70018005 1.5667725 0.6349182q0.8413696 -0.062927246 1.3959961 -0.8251648q0.55462646 -0.76223755 0.44732666 -2.2113953q-0.11419678 -1.5426483 -0.81073 -2.2739868q-0.6976929 -0.7469177 -1.5546875 -0.6828308q-0.8569946 0.06410217 -1.4104004 0.84191895q-0.53790283 0.77664185 -0.42370605 2.3193054zm12.62384 2.9730225l-0.084228516 -1.1375122q-0.8223877 1.3776703 -2.3649292 1.493042q-0.6856079 0.05126953 -1.3128662 -0.16818237q-0.6117554 -0.22061157 -0.9366455 -0.58802795q-0.3104248 -0.38417053 -0.46221924 -0.9525604q-0.121154785 -0.36698914 -0.18347168 -1.208435l-0.3564453 -4.8149414l1.3244019 -0.09906006l0.3184204 4.3007355q0.07611084 1.0284271 0.18060303 1.3809967q0.1638794 0.5204773 0.5753174 0.78741455q0.42700195 0.26576233 1.019104 0.22148132q0.59210205 -0.044281006 1.0844116 -0.37879944q0.50665283 -0.35127258 0.6867676 -0.8818054q0.17889404 -0.54611206 0.105041504 -1.5433807l-0.30804443 -4.160492l1.3088989 -0.09788513l0.5745239 7.76001l-1.1686401 0.087402344zm8.026855 -1.5561218q-0.6873169 0.66249084 -1.3377075 0.9774933q-0.6515503 0.29942322 -1.430603 0.35769653q-1.27771 0.09555054 -2.0093994 -0.4764557q-0.7317505 -0.5720215 -0.8032837 -1.5381317q-0.042663574 -0.57655334 0.17199707 -1.0626678q0.23028564 -0.48727417 0.630188 -0.79922485q0.3988037 -0.3275299 0.9182129 -0.50738525q0.36584473 -0.13705444 1.1535645 -0.28997803q1.5755005 -0.30584717 2.303772 -0.6266937q-0.0040283203 -0.26605225 -0.009765625 -0.34396362q-0.05999756 -0.8102875 -0.45819092 -1.1095581q-0.5465088 -0.3978424 -1.5281372 -0.32443237q-0.9348755 0.06993103 -1.3624878 0.43095398q-0.413208 0.3442688 -0.55462646 1.1852875l-1.3059692 -0.07467651q0.11022949 -0.8386841 0.4784546 -1.36763q0.36706543 -0.5445099 1.1109009 -0.8665161q0.7427368 -0.33758545 1.7399902 -0.41215515q0.9971924 -0.07458496 1.6221924 0.11369324q0.64056396 0.18713379 0.96313477 0.52337646q0.32141113 0.3206787 0.47088623 0.8578949q0.08770752 0.33815002 0.15228271 1.2107697l0.12921143 1.745224q0.13616943 1.8387146 0.2498169 2.3159485q0.12927246 0.47605896 0.41204834 0.90930176l-1.3712158 0.10253906q-0.23254395 -0.38998413 -0.3352661 -0.93070984zm-0.3270874 -2.936905q-0.6948242 0.3496704 -2.1133423 0.65945435q-0.8010254 0.18525696 -1.1334229 0.35113525q-0.3168335 0.16470337 -0.48303223 0.45918274q-0.15063477 0.29328918 -0.12524414 0.6361084q0.039245605 0.5298004 0.45532227 0.85905457q0.43048096 0.31251526 1.1939697 0.25541687q0.76348877 -0.05709839 1.3313599 -0.42861938q0.5667114 -0.38708496 0.8045044 -0.98461914q0.17022705 -0.45144653 0.105651855 -1.3240662l-0.0357666 -0.4830475zm3.44635 3.6594086l-0.57458496 -7.76001l1.1842041 -0.08856201l0.08770752 1.1842499q0.39068604 -0.8596649 0.7606201 -1.1536865q0.36993408 -0.29403687 0.82177734 -0.32783508q0.67004395 -0.050109863 1.3867798 0.31933594l-0.36187744 1.2492218q-0.5037842 -0.24435425 -0.9868164 -0.2082367q-0.4362793 0.03263855 -0.75946045 0.32318115q-0.32434082 0.27494812 -0.42999268 0.7529144q-0.16619873 0.71751404 -0.105041504 1.5433807l0.30108643 4.066986l-1.3244019 0.09906006zm10.0112915 -3.2557373l1.3671265 0.05444336q-0.22277832 1.2231445 -1.046875 1.9428711q-0.8240967 0.7197113 -2.1796875 0.82110596q-1.6984253 0.12701416 -2.7728882 -0.8424225q-1.0745239 -0.96943665 -1.215271 -2.8704834q-0.14422607 -1.9477844 0.7889404 -3.0987244q0.9320679 -1.1665039 2.5369263 -1.2865448q1.5581665 -0.11653137 2.6182861 0.8696594q1.0600586 0.98617554 1.2019653 2.9028168q0.009216309 0.12464905 0.026550293 0.35838318l-5.7963257 0.43351746q0.17248535 1.2719269 0.8621216 1.9097595q0.7040405 0.621109 1.685669 0.5476837q0.71673584 -0.053604126 1.2032471 -0.46603394q0.48535156 -0.4280243 0.72021484 -1.2760315zm-4.474121 -1.8119812l4.331665 -0.32395935q-0.16619873 -0.9747009 -0.60705566 -1.4274445q-0.6798096 -0.7169342 -1.677002 -0.64234924q-0.9193115 0.0687561 -1.4975586 0.7230835q-0.5626831 0.65315247 -0.5500488 1.6706696zm7.8166504 4.068985l-0.11077881 -1.4959106l1.4958496 -0.11186218l0.11071777 1.4958954q0.061157227 0.8258667 -0.19793701 1.3466492q-0.24243164 0.53518677 -0.86047363 0.8634491l-0.39990234 -0.5341644q0.39123535 -0.21728516 0.56726074 -0.5908203q0.17718506 -0.3579712 0.14318848 -1.0291748l-0.7479248 0.05593872zm12.772095 -1.9110107q-0.6873779 0.6624756 -1.3377686 0.9774933q-0.6515503 0.29942322 -1.430603 0.35769653q-1.2776489 0.09555054 -2.0093994 -0.47647095q-0.7317505 -0.5720062 -0.8032837 -1.5381165q-0.042663574 -0.57655334 0.17199707 -1.0626678q0.23028564 -0.48727417 0.630249 -0.79922485q0.39874268 -0.3275299 0.91815186 -0.5074005q0.36590576 -0.13703918 1.1536255 -0.28996277q1.5754395 -0.30584717 2.303772 -0.6266937q-0.0040283203 -0.2660675 -0.00982666 -0.34397888q-0.05999756 -0.8102722 -0.45819092 -1.1095428q-0.54644775 -0.3978424 -1.5280762 -0.32443237q-0.9349365 0.06993103 -1.3625488 0.43095398q-0.413208 0.3442688 -0.55462646 1.1852875l-1.3059692 -0.07469177q0.11029053 -0.8386841 0.4784546 -1.3676147q0.36706543 -0.5445099 1.1109619 -0.8665161q0.7427368 -0.33758545 1.7399292 -0.4121704q0.9971924 -0.0745697 1.6221924 0.113708496q0.64056396 0.18711853 0.96313477 0.52337646q0.32141113 0.3206787 0.47088623 0.8578949q0.08770752 0.33815002 0.15234375 1.2107697l0.12921143 1.745224q0.1361084 1.8387146 0.24975586 2.3159332q0.12927246 0.47605896 0.41204834 0.90930176l-1.3711548 0.10255432q-0.23260498 -0.38998413 -0.3352661 -0.93070984zm-0.32714844 -2.936905q-0.6948242 0.3496704 -2.1133423 0.65945435q-0.80096436 0.18525696 -1.1333618 0.35113525q-0.3168335 0.16470337 -0.48309326 0.45916748q-0.15063477 0.29330444 -0.12524414 0.63612366q0.039245605 0.5298004 0.45532227 0.85905457q0.43048096 0.31251526 1.1939697 0.25541687q0.76348877 -0.05709839 1.3313599 -0.42861938q0.5667114 -0.38708496 0.8045044 -0.98461914q0.17028809 -0.45144653 0.105651855 -1.3240662l-0.0357666 -0.4830475zm3.44635 3.6594086l-0.5745239 -7.76001l1.1841431 -0.08857727l0.08770752 1.1842651q0.39068604 -0.8596649 0.7606201 -1.1536865q0.36993408 -0.29403687 0.82177734 -0.32783508q0.67004395 -0.050109863 1.3867798 0.31933594l-0.36187744 1.2492218q-0.5037842 -0.24435425 -0.9868164 -0.2082367q-0.4362793 0.03263855 -0.75946045 0.3231659q-0.32434082 0.27496338 -0.42999268 0.7529144q-0.16619873 0.7175293 -0.105041504 1.543396l0.30108643 4.066986l-1.3244019 0.09906006zm4.8670654 -0.36401367l-0.5745239 -7.76001l1.1842041 -0.08856201l0.087646484 1.1842499q0.39074707 -0.85964966 0.76068115 -1.1536865q0.36987305 -0.29403687 0.82177734 -0.32783508q0.6699829 -0.050109863 1.3867188 0.3193512l-0.36187744 1.2492065q-0.5037842 -0.24435425 -0.9868164 -0.20822144q-0.4362793 0.03262329 -0.75946045 0.3231659q-0.32434082 0.27494812 -0.42993164 0.7529144q-0.16625977 0.71751404 -0.10510254 1.5433807l0.30108643 4.0670013l-1.3244019 0.0990448zm4.1123047 -4.2090454q-0.15917969 -2.1503754 0.96325684 -3.2841187q0.93377686 -0.9316101 2.3672485 -1.0388184q1.6049194 -0.120025635 2.6950073 0.8482361q1.0900879 0.968277 1.227356 2.8225708q0.11077881 1.4959106 -0.27764893 2.386734q-0.37280273 0.8896637 -1.2095947 1.437973q-0.8223877 0.5315552 -1.8352051 0.60731506q-1.6204224 0.1211853 -2.7105713 -0.8470764q-1.0744629 -0.96943665 -1.2198486 -2.9328156zm1.3555908 -0.10139465q0.11077881 1.4959106 0.8049927 2.1960907q0.70861816 0.6834259 1.6902466 0.6100006q0.9816284 -0.073410034 1.5806885 -0.8703003q0.59906006 -0.7969055 0.4859619 -2.3239746q-0.10614014 -1.4335785 -0.8147583 -2.1170044q-0.70977783 -0.6990051 -1.6914062 -0.6255951q-0.98168945 0.07342529 -1.5818481 0.8547363q-0.58465576 0.78015137 -0.47387695 2.2760468zm8.976624 3.230133l-2.9429321 -7.5828705l1.3555908 -0.10139465l1.5632324 4.3956604l0.5897217 1.6167755q0.021911621 -0.1269989 0.28741455 -1.6197052l0.894104 -4.642105l1.3399658 -0.10021973l1.5020142 4.4158936l0.4991455 1.4511871l0.32556152 -1.5285339l1.0077515 -4.5879364l1.2776489 -0.09555054l-1.8561401 7.941803l-1.3555908 0.101379395l-1.590332 -4.550308l-0.394104 -1.3023682l-1.131897 6.0857544l-1.3711548 0.10253906z" fill-rule="nonzero"></path><path fill="#cfe2f3" d="m692.0 127.6024c-15.866638 0 -38.533325 -1.1057281 -47.599976 13.268799c-9.066711 14.374542 -3.4000244 61.9207 -6.800049 72.97841c-3.3999634 11.0576935 -11.333313 -15.478455 -13.599976 -6.6322327c-2.2666626 8.846237 -2.2666626 51.969482 0 59.709595c2.2666626 7.740143 7.9333496 -22.114304 13.599976 -13.268799c5.666687 8.84552 5.666687 55.28485 20.400024 66.34183c14.733337 11.056976 54.400024 11.057343 68.0 0c13.599976 -11.057343 9.06665 -57.49814 13.599976 -66.343994c4.533386 -8.845871 10.200012 21.008942 13.600037 13.268799c3.3999634 -7.740143 9.06665 -50.86374 6.799988 -59.70961c-2.2666626 -8.845856 -17.0 17.691742 -20.400024 6.6344147c-3.3999634 -11.057343 7.9333496 -58.603867 0 -72.97841c-7.9332886 -14.374527 -31.733276 -13.268799 -47.599976 -13.268799z" fill-rule="nonzero"></path><path stroke="#000000" stroke-width="2.0" stroke-linejoin="round" stroke-linecap="butt" d="m692.0 127.6024c-15.866638 0 -38.533325 -1.1057281 -47.599976 13.268799c-9.066711 14.374542 -3.4000244 61.9207 -6.800049 72.97841c-3.3999634 11.0576935 -11.333313 -15.478455 -13.599976 -6.6322327c-2.2666626 8.846237 -2.2666626 51.969482 0 59.709595c2.2666626 7.740143 7.9333496 -22.114304 13.599976 -13.268799c5.666687 8.84552 5.666687 55.28485 20.400024 66.34183c14.733337 11.056976 54.400024 11.057343 68.0 0c13.599976 -11.057343 9.06665 -57.49814 13.599976 -66.343994c4.533386 -8.845871 10.200012 21.008942 13.600037 13.268799c3.3999634 -7.740143 9.06665 -50.86374 6.799988 -59.70961c-2.2666626 -8.845856 -17.0 17.691742 -20.400024 6.6344147c-3.3999634 -11.057343 7.9333496 -58.603867 0 -72.97841c-7.9332886 -14.374527 -31.733276 -13.268799 -47.599976 -13.268799z" fill-rule="nonzero"></path>
</svg>

