<?xml version="1.0" standalone="yes"?>

<svg version="1.1" viewBox="0.0 0.0 960.0 400.0" fill="none" stroke="none" stroke-linecap="square" stroke-miterlimit="10" clip-path="url(#p.0)" xmlns="http://www.w3.org/2000/svg" xmlns:xlink="http://www.w3.org/1999/xlink">
  <clipPath id="p.0">
    <path d="m0 0l960.0 0l0 720.0l-960.0 0l0 -720.0z" clip-rule="nonzero"></path>
  </clipPath>
  <path fill="#cfe2f3" d="m299.35883 167.13412c-18.041992 -24.4664 -26.060669 -71.65161 -48.112 -83.88481c-22.05133 -12.2332 -68.15866 -20.971199 -84.196 10.485603c-16.037338 31.456802 -34.07933 143.30319 -12.028 178.25519c22.05133 34.952026 116.27066 31.456818 144.336 31.456818c28.065338 0 26.060669 -24.4664 24.056 -31.456818c-2.0046692 -6.990387 -36.083984 -6.990387 -36.083984 -10.485596c0 -3.4951782 30.069977 -5.242798 36.083984 -10.485596c6.0140076 -5.242798 -6.0140076 -17.475998 0 -20.971191c6.0140076 -3.4952087 40.093323 10.485596 36.084015 0c-4.0093384 -10.485611 -42.098022 -38.447205 -60.140015 -62.913605z" fill-rule="nonzero"></path>
  <path stroke="#000000" stroke-width="2.0" stroke-linejoin="round" stroke-linecap="butt" d="m299.35883 167.13412c-18.041992 -24.4664 -26.060669 -71.65161 -48.112 -83.88481c-22.05133 -12.2332 -68.15866 -20.971199 -84.196 10.485603c-16.037338 31.456802 -34.07933 143.30319 -12.028 178.25519c22.05133 34.952026 116.27066 31.456818 144.336 31.456818c28.065338 0 26.060669 -24.4664 24.056 -31.456818c-2.0046692 -6.990387 -36.083984 -6.990387 -36.083984 -10.485596c0 -3.4951782 30.069977 -5.242798 36.083984 -10.485596c6.0140076 -5.242798 -6.0140076 -17.475998 0 -20.971191c6.0140076 -3.4952087 40.093323 10.485596 36.084015 0c-4.0093384 -10.485611 -42.098022 -38.447205 -60.140015 -62.913605z" fill-rule="nonzero"></path>
  <path fill="#ff0000" d="m155.01894 181.48412l21.472519 -38.766037l21.472504 38.766037z" fill-rule="nonzero"></path>
  <path stroke="#000000" stroke-width="2.0" stroke-linejoin="round" stroke-linecap="butt" d="m155.01894 181.48412l21.472519 -38.766037l21.472504 38.766037z" fill-rule="nonzero"></path><path fill="#1155cc" d="m235.20667 160.34451l0 0c0 -13.626831 8.977524 -24.673553 20.051865 -24.673553l0 0c5.3181 0 10.41835 2.5995178 14.178818 7.226715c3.7604675 4.627182 5.873047 10.903 5.873047 17.446838l0 0c0 13.626831 -8.977509 24.673553 -20.051865 24.673553l0 0c-11.074341 0 -20.051865 -11.046722 -20.051865 -24.673553z" fill-rule="nonzero"></path><path stroke="#000000" stroke-width="2.0" stroke-linejoin="round" stroke-linecap="butt" d="m235.20667 160.34451l0 0c0 -13.626831 8.977524 -24.673553 20.051865 -24.673553l0 0c5.3181 0 10.41835 2.5995178 14.178818 7.226715c3.7604675 4.627182 5.873047 10.903 5.873047 17.446838l0 0c0 13.626831 -8.977509 24.673553 -20.051865 24.673553l0 0c-11.074341 0 -20.051865 -11.046722 -20.051865 -24.673553z" fill-rule="nonzero"></path><path fill="#38761d" d="m200.1344 222.87895l34.36618 0l0 38.75911l-34.36618 0z" fill-rule="nonzero"></path><path stroke="#000000" stroke-width="2.0" stroke-linejoin="round" stroke-linecap="butt" d="m200.1344 222.87895l34.36618 0l0 38.75911l-34.36618 0z" fill-rule="nonzero"></path><path fill="#000000" d="m245.60503 189.11905l-13.382629 27.076065l1.3614502 1.0144043l-4.2274933 1.0152893l-1.2183228 -5.072937l1.3614502 1.0144196l13.382645 -27.07605z" fill-rule="nonzero"></path><path stroke="#000000" stroke-width="2.0" stroke-linejoin="round" stroke-linecap="butt" d="m245.60503 189.11905l-13.382629 27.076065l1.3614502 1.0144043l-4.2274933 1.0152893l-1.2183228 -5.072937l1.3614502 1.0144196l13.382645 -27.07605z" fill-rule="nonzero"></path><path fill="#000000" d="m202.42203 162.40028l24.732574 0.026931763l0 -1.9585876l3.9171753 3.9214478l-3.9171753 3.912918l0 -1.9585876l-24.732574 -0.026947021z" fill-rule="nonzero"></path><path stroke="#000000" stroke-width="2.0" stroke-linejoin="round" stroke-linecap="butt" d="m202.42203 162.40028l24.732574 0.026931763l0 -1.9585876l3.9171753 3.9214478l-3.9171753 3.912918l0 -1.9585876l-24.732574 -0.026947021z" fill-rule="nonzero"></path><path fill="#000000" d="m197.62465 217.83553l-13.893158 -26.61383l-1.3392639 1.0690308l1.092514 -5.1762085l4.2645264 0.90008545l-1.3392639 1.0690308l13.893158 26.613815z" fill-rule="nonzero"></path><path stroke="#000000" stroke-width="2.0" stroke-linejoin="round" stroke-linecap="butt" d="m197.62465 217.83553l-13.893158 -26.61383l-1.3392639 1.0690308l1.092514 -5.1762085l4.2645264 0.90008545l-1.3392639 1.0690308l13.893158 26.613815z" fill-rule="nonzero"></path><path fill="#000000" d="m330.70834 257.16998l0.22387695 0.90771484q-0.4449463 0.12728882 -0.78775024 0.15292358q-0.57650757 0.043121338 -0.9008179 -0.10498047q-0.32546997 -0.16369629 -0.48764038 -0.44924927q-0.14657593 -0.28674316 -0.21694946 -1.2372742l-0.26419067 -3.5683594l-0.76348877 0.05709839l-0.05999756 -0.8102875l0.7635193 -0.05709839l-0.114227295 -1.5426483l0.99780273 -0.70137024l0.16036987 2.1659393l1.0595398 -0.07923889l0.05999756 0.8102875l-1.0595398 0.07923889l0.26879883 3.6306915q0.033447266 0.45187378 0.08944702 0.5730591q0.0715332 0.11999512 0.20196533 0.18856812q0.13043213 0.068603516 0.36413574 0.051116943q0.1869812 -0.013977051 0.46514893 -0.06613159zm1.0878601 0.85876465l-0.45916748 -6.201767l0.95047 -0.0710907l0.06921387 0.9349365q0.30993652 -0.68125916 0.5909729 -0.9059601q0.2954712 -0.24147034 0.6694336 -0.2694397q0.52978516 -0.039611816 1.0993652 0.24682617l-0.28570557 1.0084991q-0.40682983 -0.2046051 -0.78079224 -0.17663574q-0.35836792 0.026794434 -0.6227112 0.26593018q-0.24987793 0.22238159 -0.3312683 0.60450745q-0.14544678 0.5749512 -0.09698486 1.2294159l0.24111938 3.2567139l-1.0439453 0.078063965zm3.4559937 -7.654068l-0.08996582 -1.2154236l1.0595398 -0.07923889l0.08996582 1.2154236l-1.0595398 0.07923889zm0.54455566 7.3548737l-0.45916748 -6.201767l1.0595398 -0.07923889l0.45916748 6.201782l-1.0595398 0.07922363zm6.6532288 -1.2653503q-0.5551758 0.54293823 -1.0855103 0.7862854q-0.514801 0.2421875 -1.1380615 0.28878784q-1.0283508 0.076934814 -1.6106262 -0.3809204q-0.5822754 -0.45785522 -0.6399536 -1.236969q-0.033477783 -0.45188904 0.14141846 -0.8410187q0.17370605 -0.40470886 0.5003357 -0.64849854q0.3255005 -0.2593689 0.73812866 -0.3999176q0.28912354 -0.1156311 0.9221802 -0.24131775q1.2517395 -0.2346344 1.8432617 -0.49822998q-0.016143799 -0.2181549 -0.019622803 -0.26490784q-0.048461914 -0.65444946 -0.36410522 -0.8972168q-0.43051147 -0.31251526 -1.2251587 -0.25308228q-0.7323303 0.054779053 -1.071106 0.34648132q-0.3399048 0.2761078 -0.4628296 0.9433899l-1.0387878 -0.063323975q0.091796875 -0.6649475 0.38900757 -1.0945587q0.2972107 -0.4296112 0.8887329 -0.69322205q0.5915222 -0.26359558 1.3862 -0.32302856q0.7946472 -0.059432983 1.3070984 0.090270996q0.5124512 0.14970398 0.76693726 0.41270447q0.25448608 0.2630005 0.38027954 0.6923065q0.06637573 0.26141357 0.11828613 0.96261597l0.1038208 1.4024048q0.10845947 1.4647369 0.19961548 1.8496552q0.10675049 0.38372803 0.33584595 0.7269592l-1.1062927 0.082733154q-0.18005371 -0.31555176 -0.25909424 -0.74838257zm-0.2677002 -2.345932q-0.5592041 0.27685547 -1.68396 0.5333252q-0.64749146 0.1424408 -0.9031372 0.286911q-0.25683594 0.12887573 -0.39648438 0.35868835q-0.12408447 0.2286377 -0.103302 0.50912476q0.03112793 0.4207306 0.3635254 0.6779022q0.34799194 0.25601196 0.95565796 0.21057129q0.607666 -0.04547119 1.0555115 -0.3453064q0.46340942 -0.3010254 0.64694214 -0.78482056q0.14486694 -0.37121582 0.09411621 -1.056839l-0.028869629 -0.38955688zm2.9282837 2.9147186l-0.45916748 -6.201767l0.934906 -0.06991577l0.06460571 0.87260437q0.6105957 -1.0641327 1.9038696 -1.1608429q0.5609131 -0.04196167 1.0433655 0.12565613q0.49801636 0.16644287 0.75598145 0.4761963q0.25793457 0.30975342 0.38372803 0.73905945q0.06866455 0.29257202 0.12289429 1.0249481l0.2826538 3.8176575l-1.0439758 0.07809448l-0.2791748 -3.770935q-0.048461914 -0.6544647 -0.19619751 -0.9567871q-0.14770508 -0.3023224 -0.47317505 -0.46600342q-0.32662964 -0.17926025 -0.747345 -0.14779663q-0.6700134 0.050109863 -1.1362915 0.5236969q-0.45187378 0.45684814 -0.36419678 1.6411133l0.25149536 3.3969574l-1.0439758 0.078063965zm6.490753 0.03164673l1.039917 0.07891846q0.096954346 0.46279907 0.40914917 0.6588135q0.411438 0.26693726 1.0814514 0.2168274q0.7323303 -0.054779053 1.0999451 -0.37997437q0.38320923 -0.32635498 0.48538208 -0.8510742q0.069244385 -0.33422852 -0.022491455 -1.3614807q-0.62557983 0.86154175 -1.6539612 0.93844604q-1.2776794 0.095581055 -2.0469055 -0.77134705q-0.77038574 -0.8825073 -0.86499023 -2.160263q-0.06576538 -0.8881836 0.19049072 -1.6594543q0.27069092 -0.7879944 0.84835815 -1.2385864q0.57769775 -0.45059204 1.4035034 -0.5123596q1.1062927 -0.082733154 1.888794 0.7518616l-0.055389404 -0.7479553l0.96606445 -0.072250366l0.3968506 5.3603363q0.107299805 1.4491577 -0.1437378 2.07901q-0.25106812 0.6298523 -0.8645325 1.0204468q-0.6123047 0.40615845 -1.5471802 0.47607422q-1.1062927 0.082733154 -1.8287964 -0.36462402q-0.72250366 -0.44735718 -0.7819214 -1.4613647zm0.5968323 -3.789444q0.08999634 1.2154236 0.614563 1.7402649q0.52456665 0.5248413 1.256897 0.47006226q0.7323303 -0.054763794 1.1737976 -0.65185547q0.4570923 -0.59825134 0.36941528 -1.7825165q-0.084228516 -1.1375122 -0.6411133 -1.6755981q-0.5412903 -0.53926086 -1.2580261 -0.48565674q-0.7011719 0.052444458 -1.1571045 0.666275q-0.4414673 0.5970917 -0.35842896 1.7190247zm6.191742 2.7646637l-0.6345215 -8.570297l1.0595398 -0.07923889l0.6345215 8.570297l-1.0595398 0.07923889zm6.780243 -2.5126648l1.0999451 0.04309082q-0.17892456 0.969162 -0.84088135 1.5514069q-0.66192627 0.5822449 -1.7370605 0.66264343q-1.3555908 0.101379395 -2.228119 -0.6794739q-0.8569641 -0.78201294 -0.9688721 -2.2935028q-0.115356445 -1.5582275 0.6314392 -2.4758606q0.74560547 -0.9332123 2.023285 -1.0287628q1.246521 -0.09321594 2.0878906 0.68995667q0.8569641 0.78201294 0.9711914 2.3246765q0.0069274902 0.0934906 0.020751953 0.2804718l-4.6276855 0.34609985q0.13845825 1.0237732 0.6930237 1.5307007q0.55340576 0.49134827 1.332489 0.4330902q0.57650757 -0.043121338 0.9597168 -0.36949158q0.39761353 -0.34310913 0.58288574 -1.0150452zm-3.5692444 -1.4409485l3.459076 -0.2586975q-0.121154785 -0.79003906 -0.47720337 -1.1551208q-0.5592041 -0.56925964 -1.3538513 -0.50982666q-0.7323303 0.054763794 -1.1951599 0.575119q-0.44726562 0.51916504 -0.43286133 1.348526zm6.3988953 3.234909l-0.08883667 -1.1998444l1.1997681 -0.08972168l0.08883667 1.1998444q0.048461914 0.65444946 -0.15527344 1.0770721q-0.20257568 0.4382019 -0.6850281 0.69366455l-0.3294983 -0.42974854q0.3168335 -0.16473389 0.4507141 -0.47244263q0.13504028 -0.29212952 0.12698364 -0.8242645l-0.607666 0.045440674zm10.37915 -1.5439911q-0.5551758 0.5429077 -1.0855103 0.78627014q-0.5147705 0.2421875 -1.138031 0.2888031q-1.0283813 0.0769043 -1.6106567 -0.38093567q-0.5822754 -0.45785522 -0.6399536 -1.236969q-0.033447266 -0.45188904 0.14141846 -0.8410187q0.17370605 -0.40470886 0.5003357 -0.64849854q0.3255005 -0.2593689 0.73812866 -0.3999176q0.28912354 -0.1156311 0.9222107 -0.24131775q1.251709 -0.2346344 1.8432312 -0.49822998q-0.016143799 -0.2181549 -0.019622803 -0.26490784q-0.048461914 -0.65444946 -0.36410522 -0.8972168q-0.43051147 -0.31251526 -1.2251587 -0.25308228q-0.7323303 0.054779053 -1.0710754 0.34648132q-0.3399353 0.27612305 -0.4628601 0.9433899l-1.0387878 -0.063323975q0.091796875 -0.6649475 0.38900757 -1.0945587q0.2972107 -0.4296112 0.8887329 -0.69322205q0.5915222 -0.26359558 1.3862 -0.32302856q0.7946472 -0.059432983 1.3070984 0.090270996q0.5124512 0.14970398 0.76693726 0.41270447q0.25448608 0.2630005 0.38027954 0.6923065q0.06637573 0.26141357 0.11828613 0.96261597l0.1038208 1.4024048q0.10845947 1.4647522 0.19961548 1.8496399q0.10675049 0.3837433 0.33584595 0.72698975l-1.1062927 0.082733154q-0.1800232 -0.31558228 -0.25909424 -0.74838257zm-0.26766968 -2.3459473q-0.5592346 0.27685547 -1.6839905 0.5333252q-0.64749146 0.1424408 -0.9031372 0.286911q-0.25680542 0.12887573 -0.39648438 0.35868835q-0.12408447 0.2286377 -0.103302 0.50912476q0.03112793 0.42071533 0.3635254 0.6779022q0.34799194 0.2559967 0.95565796 0.21055603q0.60769653 -0.045440674 1.0555115 -0.3453064q0.46340942 -0.3010254 0.64694214 -0.7848053q0.14486694 -0.37121582 0.09411621 -1.056839l-0.028839111 -0.38955688zm2.9126892 2.9158936l-0.45916748 -6.201782l0.95047 -0.07107544l0.06921387 0.9349365q0.30993652 -0.68125916 0.5909729 -0.90597534q0.2954712 -0.24145508 0.6694336 -0.26942444q0.52978516 -0.039627075 1.0993652 0.24682617l-0.28570557 1.0084839q-0.40682983 -0.2046051 -0.78079224 -0.17663574q-0.35836792 0.026809692 -0.62268066 0.26593018q-0.24990845 0.22238159 -0.3312683 0.6045227q-0.14544678 0.5749359 -0.09701538 1.2294006l0.24111938 3.2567139l-1.0439453 0.07807922zm3.9849548 -0.29803467l-0.45916748 -6.201767l0.95047 -0.0710907l0.069244385 0.9349365q0.309906 -0.68125916 0.5909424 -0.90597534q0.2955017 -0.24145508 0.6694336 -0.26942444q0.52978516 -0.039611816 1.0993652 0.24682617l-0.28570557 1.0084991q-0.40682983 -0.2046051 -0.78079224 -0.17663574q-0.35836792 0.026794434 -0.62268066 0.26593018q-0.24987793 0.22238159 -0.3312683 0.60450745q-0.14544678 0.5749512 -0.09698486 1.2294159l0.24111938 3.2566986l-1.0439758 0.07807922zm3.3814392 -3.3709412q-0.12805176 -1.7296448 0.761261 -2.6266022q0.7438965 -0.7450409 1.8969116 -0.83128357q1.2776794 -0.09555054 2.150238 0.68530273q0.8869629 0.7640991 0.9965515 2.2444305q0.08883667 1.1998291 -0.21878052 1.912262q-0.3076172 0.7124176 -0.97991943 1.154419q-0.65789795 0.4252472 -1.4681396 0.4858551q-1.2932739 0.096710205 -2.1646423 -0.6685486q-0.8569641 -0.7820282 -0.9734802 -2.355835zm1.0751038 -0.08041382q0.087677 1.1842651 0.64572144 1.7379303q0.5736084 0.55252075 1.3526917 0.49424744q0.7946472 -0.059432983 1.2649841 -0.6900177q0.47036743 -0.6305847 0.3803711 -1.8460083q-0.085357666 -1.1530914 -0.65896606 -1.7055969q-0.55804443 -0.5536804 -1.3371277 -0.4954071q-0.77905273 0.058258057 -1.2649841 0.6900177q-0.4715271 0.61499023 -0.38269043 1.8148346zm7.3367004 2.5693665l-2.3601074 -6.059616l1.0906982 -0.08157349l1.2469788 3.5105286l0.47201538 1.2965393q0.024261475 -0.095825195 0.23260498 -1.3022308l0.7128296 -3.7041016l1.0751343 -0.08039856l1.2013855 3.529602l0.3993225 1.1609497l0.26953125 -1.2266388l0.79418945 -3.6631927l1.0283813 -0.0769043l-1.4885254 6.3474426l-1.0906982 0.08157349l-1.2573547 -3.650772l-0.32659912 -1.0253754l-0.89349365 4.861435l-1.1062927 0.082733154zm7.7693176 -0.5810547l-0.08883667 -1.1998444l1.1997681 -0.08972168l0.08883667 1.1998444q0.048461914 0.65444946 -0.15527344 1.0770721q-0.20257568 0.4382019 -0.6850281 0.6936493l-0.3294983 -0.42974854q0.3168335 -0.16471863 0.4507141 -0.47242737q0.1350708 -0.29214478 0.12698364 -0.8242645l-0.607666 0.045440674zm10.267273 -3.0554962l1.0387573 0.06333923q-0.09295654 1.0724182 -0.749115 1.7325745q-0.65618896 0.660141 -1.6689758 0.7358856q-1.2776794 0.095565796 -2.11792 -0.67204285q-0.82577515 -0.78434753 -0.9411621 -2.342575q-0.07382202 -0.9972687 0.19802856 -1.7696991q0.28625488 -0.7891693 0.92855835 -1.2132568q0.65789795 -0.4252472 1.4681396 -0.48583984q0.9972229 -0.07458496 1.6741333 0.3918457q0.6913452 0.44970703 0.94869995 1.3862457l-1.0168457 0.23272705q-0.18640137 -0.6128082 -0.58340454 -0.8964844q-0.39819336 -0.29925537 -0.9279785 -0.25964355q-0.7946472 0.059432983 -1.2505798 0.67326355q-0.45706177 0.5982666 -0.36593628 1.8292694q0.09347534 1.2621613 0.6180115 1.7870026q0.52456665 0.5248413 1.2880554 0.46774292q0.6232605 -0.0466156 1.0007019 -0.45088196q0.39300537 -0.40544128 0.4588318 -1.2094727zm1.5559998 -5.2243347l-0.08999634 -1.2154236l1.0595398 -0.07923889l0.08999634 1.2154236l-1.0595398 0.07923889zm0.54452515 7.3548737l-0.45916748 -6.201782l1.0595398 -0.07923889l0.45916748 6.201767l-1.0595398 0.07925415zm2.6430054 -0.19767761l-0.45916748 -6.201767l0.95047 -0.0710907l0.069244385 0.9349365q0.309906 -0.68125916 0.5909729 -0.9059601q0.2954712 -0.24147034 0.6694336 -0.26942444q0.52975464 -0.039627075 1.0993347 0.24681091l-0.28570557 1.0084991q-0.40682983 -0.2046051 -0.78079224 -0.17663574q-0.35836792 0.026794434 -0.62268066 0.26593018q-0.24987793 0.22238159 -0.3312683 0.60450745q-0.14544678 0.5749512 -0.09698486 1.2294159l0.24111938 3.2567139l-1.0439758 0.078063965zm7.883301 -2.8771973l1.0387573 0.06333923q-0.092926025 1.0724182 -0.749115 1.7325745q-0.65615845 0.660141 -1.6689758 0.7358856q-1.2776794 0.09555054 -2.1178894 -0.67204285q-0.82580566 -0.78434753 -0.9411621 -2.342575q-0.07382202 -0.99728394 0.19799805 -1.7696991q0.28625488 -0.7891693 0.92858887 -1.2132568q0.65789795 -0.4252472 1.4681091 -0.4858551q0.9972229 -0.0745697 1.6741333 0.39186096q0.6913452 0.44969177 0.94869995 1.3862457l-1.0168457 0.23272705q-0.18637085 -0.6128082 -0.58340454 -0.8964844q-0.39819336 -0.29927063 -0.927948 -0.25964355q-0.7946472 0.059432983 -1.2505798 0.67326355q-0.4570923 0.59825134 -0.36593628 1.8292694q0.093444824 1.2621613 0.6180115 1.7870026q0.52456665 0.5248413 1.2880554 0.46774292q0.6232605 -0.0466156 1.0006714 -0.45088196q0.3930359 -0.40544128 0.4588318 -1.2094727zm2.0693665 2.1328583l-0.6345215 -8.570297l1.0595398 -0.07923889l0.634552 8.570297l-1.0595703 0.07923889zm6.7802734 -2.5126648l1.0999146 0.04309082q-0.17892456 0.969162 -0.84085083 1.5514069q-0.6619568 0.5822449 -1.7370911 0.66264343q-1.3555603 0.101379395 -2.228119 -0.6794739q-0.8569336 -0.78201294 -0.96884155 -2.2935028q-0.11538696 -1.5582275 0.6314087 -2.4758606q0.745636 -0.9332123 2.0233154 -1.0287628q1.246521 -0.09321594 2.0878906 0.68995667q0.8569641 0.78201294 0.9711609 2.3246765q0.0069274902 0.0934906 0.02078247 0.2804718l-4.627716 0.34609985q0.13845825 1.0237732 0.6930237 1.5307007q0.5534363 0.49134827 1.332489 0.4330902q0.5765381 -0.043121338 0.9597168 -0.36949158q0.39764404 -0.34310913 0.58291626 -1.0150452zm-3.569275 -1.4409485l3.4591064 -0.2586975q-0.1211853 -0.79003906 -0.4772339 -1.1551208q-0.5591736 -0.56925964 -1.3538208 -0.50982666q-0.7323303 0.054763794 -1.1951904 0.575119q-0.44726562 0.51916504 -0.43286133 1.348526zm6.3988953 3.234909l-0.08883667 -1.1998444l1.1997681 -0.08972168l0.08883667 1.1998444q0.048461914 0.65444946 -0.15527344 1.0770721q-0.20257568 0.4382019 -0.6850281 0.6936493l-0.3294983 -0.42974854q0.3168335 -0.16470337 0.4507141 -0.47242737q0.1350708 -0.29212952 0.12698364 -0.8242645l-0.607666 0.045440674zm10.379181 -1.5439911q-0.5551758 0.5429077 -1.0855408 0.78627014q-0.5147705 0.2421875 -1.138031 0.2888031q-1.0283813 0.0769043 -1.6106567 -0.38093567q-0.5822754 -0.45785522 -0.6399536 -1.236969q-0.033447266 -0.45188904 0.14141846 -0.8410187q0.17370605 -0.40470886 0.5003662 -0.64849854q0.32546997 -0.2593689 0.73809814 -0.3999176q0.28912354 -0.1156311 0.9222107 -0.24131775q1.251709 -0.2346344 1.8432312 -0.49822998q-0.016143799 -0.2181549 -0.019592285 -0.26490784q-0.048461914 -0.65444946 -0.36413574 -0.8972168q-0.43048096 -0.31251526 -1.2251587 -0.25308228q-0.7323303 0.054779053 -1.0710754 0.34648132q-0.3399048 0.2761078 -0.4628601 0.9433899l-1.0387573 -0.063323975q0.09176636 -0.6649475 0.38897705 -1.0945587q0.2972412 -0.4296112 0.8887634 -0.69322205q0.5915222 -0.26359558 1.3861694 -0.32302856q0.7946472 -0.059432983 1.3070984 0.090270996q0.5124512 0.14970398 0.7669678 0.41270447q0.25448608 0.2630005 0.38027954 0.6923065q0.066345215 0.26141357 0.118255615 0.96261597l0.1038208 1.4024048q0.10845947 1.4647522 0.19961548 1.8496399q0.10675049 0.3837433 0.33584595 0.72698975l-1.1062622 0.082733154q-0.18005371 -0.31558228 -0.25909424 -0.74838257zm-0.2677002 -2.3459473q-0.5592041 0.27685547 -1.68396 0.5333252q-0.647522 0.1424408 -0.9031677 0.28689575q-0.25680542 0.12889099 -0.39648438 0.3587036q-0.12408447 0.2286377 -0.103302 0.50912476q0.031158447 0.42071533 0.3635559 0.6779022q0.34796143 0.2559967 0.95565796 0.21055603q0.607666 -0.045440674 1.055481 -0.3453064q0.46343994 -0.3010254 0.64697266 -0.7848053q0.14483643 -0.37121582 0.09408569 -1.056839l-0.028839111 -0.38955688zm2.9126892 2.9158936l-0.45916748 -6.201782l0.95047 -0.0710907l0.069244385 0.9349518q0.309906 -0.68125916 0.5909424 -0.90597534q0.2955017 -0.24145508 0.6694336 -0.26942444q0.52978516 -0.039627075 1.0993652 0.24682617l-0.28570557 1.0084839q-0.40682983 -0.2046051 -0.78079224 -0.17663574q-0.35836792 0.026809692 -0.62268066 0.26593018q-0.24987793 0.22238159 -0.3312683 0.6045227q-0.14544678 0.5749359 -0.09698486 1.2294006l0.24111938 3.2567139l-1.0439758 0.07807922zm3.9849854 -0.29803467l-0.45916748 -6.201782l0.95047 -0.07107544l0.06921387 0.9349365q0.309906 -0.68125916 0.5909729 -0.90597534q0.2954712 -0.24145508 0.6694336 -0.26942444q0.52975464 -0.039611816 1.0993347 0.24682617l-0.28567505 1.0084991q-0.40686035 -0.2046051 -0.78079224 -0.17663574q-0.35839844 0.026794434 -0.6227112 0.26593018q-0.24987793 0.22238159 -0.3312683 0.60450745q-0.14544678 0.5749512 -0.09698486 1.2294159l0.24111938 3.2566986l-1.0439453 0.07807922zm3.3814087 -3.3709412q-0.12805176 -1.7296448 0.761261 -2.6266022q0.7438965 -0.7450409 1.8969421 -0.83128357q1.2776794 -0.09555054 2.1502075 0.68530273q0.8869629 0.7640991 0.9965515 2.2444305q0.08883667 1.1998291 -0.21878052 1.912262q-0.30758667 0.7124176 -0.97991943 1.154419q-0.65789795 0.4252472 -1.4681396 0.4858551q-1.2932739 0.096710205 -2.1646423 -0.6685486q-0.8569641 -0.7820282 -0.9734802 -2.355835zm1.0751343 -0.08041382q0.087677 1.1842651 0.6456909 1.7379303q0.5736084 0.55252075 1.3526917 0.49424744q0.7946472 -0.059432983 1.2650146 -0.6900177q0.4703369 -0.6305847 0.38034058 -1.8460083q-0.085357666 -1.1530914 -0.65896606 -1.7055969q-0.55804443 -0.5536804 -1.3370972 -0.4954071q-0.77908325 0.058258057 -1.2650146 0.6900177q-0.47149658 0.61499023 -0.3826599 1.8148346zm7.33667 2.5693665l-2.3601074 -6.059616l1.0907288 -0.08157349l1.2469788 3.5105286l0.47201538 1.2965393q0.024230957 -0.095825195 0.23260498 -1.3022308l0.7128296 -3.7041016l1.0751038 -0.08039856l1.2013855 3.529602l0.3993225 1.1609497l0.26953125 -1.2266388l0.79422 -3.6631927l1.0283508 -0.0769043l-1.4884949 6.3474426l-1.0907288 0.08157349l-1.2573547 -3.650772l-0.32659912 -1.0253754l-0.89349365 4.861435l-1.1062927 0.082733154zm7.7693176 -0.5810547l-0.08883667 -1.1998444l1.1997986 -0.08972168l0.08883667 1.1998444q0.048431396 0.65444946 -0.15527344 1.0770721q-0.20257568 0.4382019 -0.6850281 0.6936493l-0.3295288 -0.42974854q0.3168335 -0.16471863 0.45074463 -0.47242737q0.13504028 -0.29214478 0.12698364 -0.8242645l-0.60769653 0.045440674zm5.826538 -2.3003235l1.0168457 -0.23272705q0.13961792 0.6163025 0.55340576 0.9143982q0.4293213 0.29692078 1.1616516 0.24215698q0.71676636 -0.053604126 1.0387878 -0.35972595q0.3364563 -0.32286072 0.30645752 -0.7280121q-0.026519775 -0.35838318 -0.3531494 -0.5376587q-0.22854614 -0.123916626 -1.1016846 -0.27798462q-1.1749268 -0.20982361 -1.6417847 -0.37860107q-0.4524536 -0.18553162 -0.7138672 -0.5420227q-0.26141357 -0.35650635 -0.2960205 -0.8239746q-0.02999878 -0.4051361 0.13046265 -0.7775116q0.16043091 -0.3723755 0.4703369 -0.6305847q0.2366333 -0.19004822 0.6481018 -0.34617615q0.4114685 -0.15612793 0.9100647 -0.19340515q0.71676636 -0.053604126 1.2782593 0.12376404q0.57592773 0.16061401 0.8673401 0.49919128q0.29144287 0.33859253 0.42874146 0.9237213l-1.0179749 0.21716309q-0.096954346 -0.46281433 -0.4593506 -0.70207214q-0.34796143 -0.25601196 -0.9712219 -0.20941162q-0.71676636 0.053604126 -1.0099182 0.3262329q-0.29434204 0.25704956 -0.27011108 0.5842743q0.015014648 0.20257568 0.15118408 0.34907532q0.15292358 0.16091919 0.42590332 0.2501831q0.16040039 0.05067444 0.9544983 0.1949768q1.144928 0.22773743 1.5950623 0.3821106q0.45010376 0.15435791 0.72595215 0.4941101q0.2758484 0.33973694 0.31622314 0.88513184q0.039215088 0.52978516 -0.23779297 1.0205688q-0.26260376 0.47402954 -0.8194885 0.78204346q-0.55807495 0.2924347 -1.2904053 0.34721375q-1.215332 0.09088135 -1.8911133 -0.3599701q-0.6613159 -0.4676056 -0.9053955 -1.4364777zm10.675476 3.4634705l-0.22494507 -3.038559q-0.22393799 0.3614502 -0.6585083 0.62898254q-0.42010498 0.25079346 -0.9187317 0.28807068q-1.1062622 0.08274841 -1.9655457 -0.73043823q-0.8604126 -0.82876587 -0.9746094 -2.3714142q-0.069244385 -0.9349518 0.20376587 -1.6917877q0.27182007 -0.7724304 0.85180664 -1.1918488q0.5944214 -0.4361725 1.3267517 -0.49093628q1.1530457 -0.086242676 1.8789673 0.8309326l-0.06112671 -0.8258667l0.95047 -0.0710907l0.63568115 8.585876l-1.0439758 0.07807922zm-3.6637573 -5.257019q0.08880615 1.1998444 0.6312561 1.7546844q0.55804443 0.55366516 1.2592163 0.50123596q0.6699829 -0.050109863 1.1114807 -0.64720154q0.44033813 -0.6126709 0.35498047 -1.7657623q-0.092285156 -1.2465973 -0.6526489 -1.8314362q-0.54473877 -0.58599854 -1.2459106 -0.53356934q-0.6700134 0.050109863 -1.1091919 0.67837524q-0.44033813 0.6126709 -0.34918213 1.8436737zm10.251556 2.367035l-0.0680542 -0.9193573q-0.6538696 1.1143646 -1.9003906 1.2075806q-0.5453491 0.040786743 -1.043396 -0.12565613q-0.48358154 -0.18319702 -0.74038696 -0.47735596q-0.25793457 -0.30975342 -0.38604736 -0.77023315q-0.084228516 -0.2913971 -0.13500977 -0.97702026l-0.28381348 -3.8332672l1.0595398 -0.07923889l0.25497437 3.443695q0.05999756 0.8102875 0.14422607 1.1016998q0.12350464 0.39814758 0.45358276 0.62416077q0.34451294 0.20925903 0.82754517 0.17312622q0.46743774 -0.034957886 0.8552551 -0.2989807q0.4022522 -0.28079224 0.54248047 -0.71432495q0.15585327 -0.43470764 0.09701538 -1.2294159l-0.24575806 -3.3190308l1.0439758 -0.07807922l0.45916748 6.201767l-0.934906 0.06993103zm6.58313 -1.2601013q-0.5551758 0.5429077 -1.0855103 0.78627014q-0.5147705 0.2421875 -1.138031 0.2888031q-1.0283813 0.0769043 -1.6106567 -0.38093567q-0.5822754 -0.45785522 -0.6399536 -1.236969q-0.033447266 -0.45188904 0.14141846 -0.8410187q0.17370605 -0.40470886 0.5003357 -0.64849854q0.3255005 -0.2593689 0.73812866 -0.3999176q0.28912354 -0.1156311 0.9222107 -0.24131775q1.251709 -0.2346344 1.8432312 -0.49822998q-0.016143799 -0.2181549 -0.019622803 -0.26490784q-0.048461914 -0.65444946 -0.36410522 -0.8972168q-0.43051147 -0.31251526 -1.2251587 -0.25308228q-0.7323303 0.054779053 -1.0710754 0.34648132q-0.3399353 0.2761078 -0.4628601 0.9433899l-1.0387878 -0.063323975q0.091796875 -0.6649475 0.38900757 -1.0945587q0.2972107 -0.4296112 0.8887329 -0.69322205q0.5915222 -0.26359558 1.3862 -0.32302856q0.7946472 -0.059432983 1.3070984 0.090270996q0.5124512 0.14970398 0.76693726 0.41270447q0.25448608 0.2630005 0.38027954 0.6923065q0.06637573 0.26141357 0.11828613 0.96261597l0.1038208 1.4024048q0.10845947 1.4647522 0.19961548 1.8496399q0.10675049 0.3837433 0.33584595 0.72698975l-1.1062927 0.082733154q-0.1800232 -0.31558228 -0.25909424 -0.74838257zm-0.26766968 -2.3459473q-0.5592346 0.27685547 -1.6839905 0.5333252q-0.64749146 0.1424408 -0.9031372 0.28689575q-0.25680542 0.12889099 -0.39648438 0.3587036q-0.12408447 0.2286377 -0.103302 0.50912476q0.03112793 0.42071533 0.3635254 0.6779022q0.34799194 0.2559967 0.95565796 0.21055603q0.60769653 -0.045440674 1.0555115 -0.3453064q0.46340942 -0.3010254 0.64694214 -0.7848053q0.14486694 -0.37121582 0.09411621 -1.056839l-0.028839111 -0.38955688zm2.9126892 2.9158936l-0.45916748 -6.201782l0.95047 -0.0710907l0.06921387 0.9349518q0.30993652 -0.68125916 0.5909729 -0.90597534q0.2954712 -0.24145508 0.6694336 -0.26942444q0.52978516 -0.039627075 1.0993652 0.24682617l-0.28570557 1.0084839q-0.40682983 -0.2046051 -0.78079224 -0.17663574q-0.35836792 0.026809692 -0.62268066 0.26593018q-0.24990845 0.22238159 -0.3312683 0.6045227q-0.14544678 0.5749359 -0.09701538 1.2294006l0.24111938 3.2567139l-1.0439453 0.07807922zm8.091064 -2.6107025l1.0999146 0.04309082q-0.17895508 0.969162 -0.84088135 1.5514069q-0.66192627 0.5822296 -1.7370605 0.66264343q-1.3555908 0.101379395 -2.2281494 -0.6794739q-0.8569336 -0.78201294 -0.96884155 -2.2935028q-0.115356445 -1.5582275 0.6314392 -2.4758606q0.74560547 -0.9332123 2.0233154 -1.0287628q1.246521 -0.0932312 2.0878906 0.68995667q0.8569336 0.78201294 0.9711304 2.3246765q0.006958008 0.0934906 0.020751953 0.2804718l-4.6276855 0.34609985q0.13848877 1.0237732 0.6930542 1.5307007q0.55340576 0.49134827 1.3324585 0.43307495q0.5765381 -0.04310608 0.9597168 -0.36947632q0.39764404 -0.34310913 0.5829468 -1.0150452zm-3.569275 -1.4409485l3.4590454 -0.2586975q-0.121154785 -0.79003906 -0.47717285 -1.1551208q-0.5592041 -0.56925964 -1.3538818 -0.50982666q-0.7322998 0.054763794 -1.1951294 0.575119q-0.44726562 0.51916504 -0.43286133 1.348526zm6.3988647 3.234909l-0.08880615 -1.1998444l1.1997681 -0.08972168l0.08880615 1.1998444q0.048461914 0.65444946 -0.15527344 1.0770721q-0.20257568 0.4382019 -0.68499756 0.6936493l-0.3295288 -0.42974854q0.3168335 -0.16471863 0.45074463 -0.47242737q0.1350708 -0.29214478 0.12695312 -0.8242645l-0.607666 0.045440674zm10.379211 -1.5440063q-0.5552368 0.542923 -1.0855713 0.7862854q-0.5147705 0.2421875 -1.1380005 0.2888031q-1.0283813 0.0769043 -1.6106567 -0.38095093q-0.5822754 -0.45783997 -0.6399536 -1.2369537q-0.033447266 -0.45188904 0.14141846 -0.8410187q0.17370605 -0.40470886 0.5003662 -0.64849854q0.32543945 -0.2593689 0.73809814 -0.3999176q0.28912354 -0.1156311 0.9221802 -0.24131775q1.251709 -0.2346344 1.8432617 -0.49822998q-0.016174316 -0.2181549 -0.019592285 -0.26490784q-0.048461914 -0.65444946 -0.36413574 -0.8972168q-0.43048096 -0.31251526 -1.2251587 -0.25308228q-0.73236084 0.054779053 -1.071106 0.34648132q-0.3399048 0.2761078 -0.4628296 0.9433899l-1.0387573 -0.063323975q0.09173584 -0.6649475 0.38897705 -1.0945587q0.29718018 -0.42962646 0.8887329 -0.69322205q0.59155273 -0.26359558 1.3861694 -0.32302856q0.79467773 -0.059432983 1.3071289 0.090270996q0.5124512 0.14968872 0.76690674 0.41270447q0.2545166 0.2630005 0.38031006 0.6923065q0.066345215 0.26141357 0.11828613 0.96261597l0.1038208 1.4024048q0.10845947 1.4647522 0.19958496 1.8496399q0.10675049 0.3837433 0.33587646 0.7269745l-1.1063232 0.08274841q-0.17999268 -0.31558228 -0.2590332 -0.7483978zm-0.2677002 -2.345932q-0.5592041 0.2768402 -1.68396 0.5333252q-0.647522 0.14242554 -0.90319824 0.28689575q-0.2567749 0.12889099 -0.39648438 0.3587036q-0.12408447 0.2286377 -0.103271484 0.50912476q0.03112793 0.42071533 0.3635254 0.67788696q0.34796143 0.25601196 0.95562744 0.21057129q0.60772705 -0.045455933 1.055542 -0.3453064q0.4633789 -0.3010254 0.6469116 -0.7848053q0.14489746 -0.37121582 0.09411621 -1.056839l-0.028808594 -0.38955688zm2.9126587 2.9158936l-0.45916748 -6.201782l0.9505005 -0.0710907l0.06921387 0.9349518q0.30993652 -0.68125916 0.5909424 -0.90597534q0.29553223 -0.24145508 0.6694336 -0.26942444q0.52978516 -0.039627075 1.0993652 0.24682617l-0.28570557 1.0084839q-0.40679932 -0.2046051 -0.7807617 -0.17663574q-0.35839844 0.026794434 -0.62268066 0.26593018q-0.24987793 0.22238159 -0.33129883 0.60450745q-0.14544678 0.5749512 -0.09698486 1.2294159l0.2411499 3.2567139l-1.0440063 0.07807922zm3.9849854 -0.29803467l-0.45916748 -6.201782l0.9505005 -0.07107544l0.06921387 0.9349365q0.3098755 -0.68125916 0.5909424 -0.90597534q0.2954712 -0.24145508 0.6694336 -0.26942444q0.52978516 -0.039611816 1.0993652 0.24682617l-0.28570557 1.0084839q-0.40686035 -0.20458984 -0.78082275 -0.17663574q-0.3583374 0.026809692 -0.62268066 0.26593018q-0.24987793 0.22238159 -0.3312378 0.6045227q-0.14544678 0.5749512 -0.09698486 1.2294006l0.24108887 3.2567139l-1.0439453 0.07807922zm3.3814087 -3.3709412q-0.12805176 -1.7296448 0.7612915 -2.6266022q0.7438965 -0.74505615 1.8969116 -0.83128357q1.27771 -0.09555054 2.1502075 0.68530273q0.8869629 0.7640991 0.99658203 2.2444153q0.08880615 1.1998444 -0.21881104 1.9122772q-0.30755615 0.7124176 -0.97991943 1.154419q-0.65789795 0.4252472 -1.4681396 0.48583984q-1.2932739 0.096725464 -2.1646118 -0.6685486q-0.8569946 -0.78201294 -0.97351074 -2.3558197zm1.0751343 -0.08041382q0.08770752 1.1842651 0.6456909 1.7379303q0.5736084 0.5525055 1.3527222 0.49424744q0.7946167 -0.059432983 1.2650146 -0.6900177q0.4703369 -0.6305847 0.38031006 -1.8460083q-0.08532715 -1.1530914 -0.65893555 -1.7055969q-0.55804443 -0.5536804 -1.3370972 -0.4954071q-0.77911377 0.058258057 -1.2650146 0.69000244q-0.47149658 0.6150055 -0.38269043 1.8148499zm7.33667 2.5693665l-2.3601074 -6.059616l1.0906982 -0.08157349l1.2470093 3.5105286l0.4720459 1.2965393q0.024230957 -0.095825195 0.23260498 -1.3022308l0.7128296 -3.7041016l1.0750732 -0.08039856l1.201416 3.529602l0.399292 1.1609497l0.26953125 -1.2266388l0.79418945 -3.6631927l1.0283813 -0.0769043l-1.4885254 6.3474426l-1.0906982 0.08157349l-1.2573242 -3.650772l-0.32659912 -1.0253754l-0.89349365 4.8614197l-1.1063232 0.08274841z" fill-rule="nonzero"></path><path fill="#cfe2f3" d="m671.8 64.0c-24.21997 0 -58.820007 -1.7448006 -72.65997 20.9376c-13.840027 22.682396 -5.1900024 97.70823 -10.380005 115.15679c-5.1900024 17.448578 -17.299988 -24.424332 -20.76001 -10.465363c-3.460022 13.958969 -3.460022 82.005585 0 94.21921c3.460022 12.213593 12.109985 -34.89543 20.76001 -20.937622c8.649963 13.957825 8.649963 87.23715 31.140015 104.68457c22.48999 17.447418 83.03998 17.447998 103.79999 0c20.76001 -17.447998 13.839966 -90.72958 20.76001 -104.68799c6.919983 -13.958405 15.570007 33.151184 20.76001 20.937592c5.1899414 -12.213593 13.839966 -80.26079 10.379944 -94.21919c-3.459961 -13.958405 -25.949951 27.916794 -31.139954 10.468796c-5.1900024 -17.447998 12.109985 -92.474396 0 -115.15679c-12.110046 -22.6824 -48.440002 -20.9376 -72.660034 -20.9376z" fill-rule="nonzero"></path><path stroke="#000000" stroke-width="2.0" stroke-linejoin="round" stroke-linecap="butt" d="m671.8 64.0c-24.21997 0 -58.820007 -1.7448006 -72.65997 20.9376c-13.840027 22.682396 -5.1900024 97.70823 -10.380005 115.15679c-5.1900024 17.448578 -17.299988 -24.424332 -20.76001 -10.465363c-3.460022 13.958969 -3.460022 82.005585 0 94.21921c3.460022 12.213593 12.109985 -34.89543 20.76001 -20.937622c8.649963 13.957825 8.649963 87.23715 31.140015 104.68457c22.48999 17.447418 83.03998 17.447998 103.79999 0c20.76001 -17.447998 13.839966 -90.72958 20.76001 -104.68799c6.919983 -13.958405 15.570007 33.151184 20.76001 20.937592c5.1899414 -12.213593 13.839966 -80.26079 10.379944 -94.21919c-3.459961 -13.958405 -25.949951 27.916794 -31.139954 10.468796c-5.1900024 -17.447998 12.109985 -92.474396 0 -115.15679c-12.110046 -22.6824 -48.440002 -20.9376 -72.660034 -20.9376z" fill-rule="nonzero"></path><path fill="#674ea7" d="m617.2319 250.10724l-18.398315 -48.155045l51.380554 4.177185z" fill-rule="nonzero"></path><path stroke="#000000" stroke-width="2.0" stroke-linejoin="round" stroke-linecap="butt" d="m617.2319 250.10724l-18.398315 -48.155045l51.380554 4.177185z" fill-rule="nonzero"></path><path fill="#674ea7" d="m659.79126 153.72227l0 0c-12.26416 -9.197769 -15.31134 -25.847473 -6.8061523 -37.18815l0 0c4.0843506 -5.4459915 10.341003 -8.914307 17.393555 -9.641968c7.0525513 -0.7276535 14.323242 1.3449554 20.212708 5.761879l0 0c12.26416 9.197762 15.311401 25.847458 6.8061523 37.18814l0 0c-8.505188 11.340683 -25.342102 13.077866 -37.606262 3.8800964z" fill-rule="nonzero"></path><path stroke="#000000" stroke-width="2.0" stroke-linejoin="round" stroke-linecap="butt" d="m659.79126 153.72227l0 0c-12.26416 -9.197769 -15.31134 -25.847473 -6.8061523 -37.18815l0 0c4.0843506 -5.4459915 10.341003 -8.914307 17.393555 -9.641968c7.0525513 -0.7276535 14.323242 1.3449554 20.212708 5.761879l0 0c12.26416 9.197762 15.311401 25.847458 6.8061523 37.18814l0 0c-8.505188 11.340683 -25.342102 13.077866 -37.606262 3.8800964z" fill-rule="nonzero"></path><path fill="#674ea7" d="m689.13635 231.8472l26.393616 -35.192673l34.88324 26.161423l-26.393616 35.192688z" fill-rule="nonzero"></path><path stroke="#000000" stroke-width="2.0" stroke-linejoin="round" stroke-linecap="butt" d="m689.13635 231.8472l26.393616 -35.192673l34.88324 26.161423l-26.393616 35.192688z" fill-rule="nonzero"></path><path fill="#674ea7" d="m693.67444 162.49591l13.994751 31.763016l1.9585571 -0.7095032l-2.2373047 5.231598l-5.596985 -2.3936005l1.9585571 -0.7095032l-13.994751 -31.763z" fill-rule="nonzero"></path><path stroke="#000000" stroke-width="2.0" stroke-linejoin="round" stroke-linecap="butt" d="m693.67444 162.49591l13.994751 31.763016l1.9585571 -0.7095032l-2.2373047 5.231598l-5.596985 -2.3936005l1.9585571 -0.7095032l-13.994751 -31.763z" fill-rule="nonzero"></path><path fill="#674ea7" d="m636.46246 188.68298l19.384094 -25.7948l-1.7627563 -1.321991l6.1728516 -0.87893677l0.87805176 6.166931l-1.7626953 -1.3220062l-19.384033 25.7948z" fill-rule="nonzero"></path><path stroke="#000000" stroke-width="2.0" stroke-linejoin="round" stroke-linecap="butt" d="m636.46246 188.68298l19.384094 -25.7948l-1.7627563 -1.321991l6.1728516 -0.87893677l0.87805176 6.166931l-1.7626953 -1.3220062l-19.384033 25.7948z" fill-rule="nonzero"></path><path fill="#674ea7" d="m682.66974 231.01314l-34.41089 -3.7135315l-0.066467285 2.0930328l-4.031128 -4.635437l4.296875 -3.7367096l-0.06640625 2.0930328l34.41089 3.7135315z" fill-rule="nonzero"></path><path stroke="#000000" stroke-width="2.0" stroke-linejoin="round" stroke-linecap="butt" d="m682.66974 231.01314l-34.41089 -3.7135315l-0.066467285 2.0930328l-4.031128 -4.635437l4.296875 -3.7367096l-0.06640625 2.0930328l34.41089 3.7135315z" fill-rule="nonzero"></path></svg>

